<svg xmlns="http://www.w3.org/2000/svg" viewBox="0 0 64 64" width="32" height="32">
  <rect width="64" height="64" fill="#0A0A0A" rx="8"/>
  <g fill="none" stroke="#8B1A2B" stroke-width="2.5" stroke-linecap="square" stroke-linejoin="miter">
    <polygon points="32,4 58,32 32,60 6,32"/>
    <polygon points="32,16 46,32 32,48 18,32"/>
    <line x1="32" y1="4" x2="32" y2="16"/>
    <line x1="58" y1="32" x2="46" y2="32"/>
    <line x1="32" y1="60" x2="32" y2="48"/>
    <line x1="6" y1="32" x2="18" y2="32"/>
    <polyline points="22,18 16,18 16,24"/>
    <polyline points="42,18 48,18 48,24"/>
    <polyline points="22,46 16,46 16,40"/>
    <polyline points="42,46 48,46 48,40"/>
  </g>
</svg>
